<svg xmlns="http://www.w3.org/2000/svg" width="960" height="640" viewBox="0 0 960 640" role="img" aria-labelledby="title">
<title id="title">DIAGRAM 2 - USER ACTOR</title>
<defs><marker id="arrow" viewBox="0 0 10 10" refX="9" refY="5" markerWidth="7" markerHeight="7" orient="auto-start-reverse"><path d="M 0 0 L 10 5 L 0 10 z" fill="#222"/></marker></defs>
<rect width="960" height="640" fill="white"/>
<g fill="white" stroke="#222" stroke-width="2">
<text x="480" y="38" text-anchor="middle" fill="#111" stroke="none" font-family="Arial, sans-serif" font-size="22" font-weight="bold">DIAGRAM 2 - USER ACTOR</text>
<rect x="350" y="82" width="550" height="510"/>
<text x="625" y="116" text-anchor="middle" fill="#111" stroke="none" font-family="Arial, sans-serif" font-size="18" font-weight="bold">SERVICE MANAGEMENT SYSTEM</text>
<circle cx="160" cy="230.0" r="24"/>
<line x1="160" y1="254.0" x2="160" y2="320.0"/>
<line x1="110" y1="285.0" x2="210" y2="285.0"/>
<line x1="160" y1="320.0" x2="120" y2="383.0"/>
<line x1="160" y1="320.0" x2="200" y2="383.0"/>
<text x="160" y="411.0" text-anchor="middle" fill="#111" stroke="none" font-family="Arial, sans-serif" font-size="21" font-weight="bold">User</text>
<line x1="210" y1="285.0" x2="465" y2="180"/>
<ellipse cx="650" cy="180" rx="185" ry="40"/>
<text x="650" y="186" text-anchor="middle" fill="#111" stroke="none" font-family="Arial, sans-serif" font-size="18" font-weight="normal">Register an account</text>
<line x1="210" y1="285.0" x2="465" y2="290"/>
<ellipse cx="650" cy="290" rx="185" ry="40"/>
<text x="650" y="296" text-anchor="middle" fill="#111" stroke="none" font-family="Arial, sans-serif" font-size="18" font-weight="normal">Sign in</text>
<line x1="210" y1="285.0" x2="465" y2="400"/>
<ellipse cx="650" cy="400" rx="185" ry="40"/>
<text x="650" y="406" text-anchor="middle" fill="#111" stroke="none" font-family="Arial, sans-serif" font-size="18" font-weight="normal">Request a service</text>
<line x1="210" y1="285.0" x2="465" y2="510"/>
<ellipse cx="650" cy="510" rx="185" ry="40"/>
<text x="650" y="516" text-anchor="middle" fill="#111" stroke="none" font-family="Arial, sans-serif" font-size="18" font-weight="normal">Check request status</text>
</g></svg>
